<?xml version="1.0" encoding="UTF-8" standalone="no"?>
<!DOCTYPE svg PUBLIC "-//W3C//DTD SVG 1.1//EN"
 "http://www.w3.org/Graphics/SVG/1.1/DTD/svg11.dtd">
<!-- Generated by graphviz version 2.43.0 (0)
 -->
<!-- Title: %3 Pages: 1 -->
<svg width="233pt" height="332pt"
 viewBox="0.00 0.00 232.50 332.00" xmlns="http://www.w3.org/2000/svg" xmlns:xlink="http://www.w3.org/1999/xlink">
<g id="graph0" class="graph" transform="scale(1 1) rotate(0) translate(4 328)">
<title>%3</title>
<polygon fill="white" stroke="transparent" points="-4,4 -4,-328 228.5,-328 228.5,4 -4,4"/>
<!-- 0 -->
<g id="node1" class="node">
<title>0</title>
<polygon fill="none" stroke="black" points="135,-324 0,-324 0,-288 135,-288 135,-324"/>
<text text-anchor="middle" x="67.5" y="-302.3" font-family="Times,serif" font-size="14.00">starting position</text>
</g>
<!-- 1 -->
<g id="node2" class="node">
<title>1</title>
<polygon fill="none" stroke="black" points="97.5,-36 43.5,-36 43.5,0 97.5,0 97.5,-36"/>
<text text-anchor="middle" x="70.5" y="-14.3" font-family="Times,serif" font-size="14.00">goal</text>
</g>
<!-- 0&#45;&gt;1 -->
<g id="edge1" class="edge">
<title>0&#45;&gt;1</title>
<path fill="none" stroke="black" d="M53.94,-287.97C46.94,-278.09 39.13,-265.05 35.5,-252 14.04,-174.93 12.48,-148.62 35.5,-72 38.42,-62.28 43.76,-52.7 49.41,-44.41"/>
<polygon fill="black" stroke="black" points="52.26,-46.44 55.32,-36.3 46.6,-42.32 52.26,-46.44"/>
</g>
<!-- 2 -->
<g id="node3" class="node">
<title>2</title>
<polygon fill="none" stroke="black" points="192.5,-252 44.5,-252 44.5,-216 192.5,-216 192.5,-252"/>
<text text-anchor="middle" x="118.5" y="-230.3" font-family="Times,serif" font-size="14.00">loop start analysis</text>
</g>
<!-- 0&#45;&gt;2 -->
<g id="edge2" class="edge">
<title>0&#45;&gt;2</title>
<path fill="none" stroke="black" d="M80.11,-287.7C86.1,-279.47 93.38,-269.48 99.98,-260.42"/>
<polygon fill="black" stroke="black" points="102.98,-262.25 106.04,-252.1 97.32,-258.13 102.98,-262.25"/>
</g>
<!-- 3 -->
<g id="node4" class="node">
<title>3</title>
<polygon fill="none" stroke="black" points="126.5,-180 66.5,-180 66.5,-144 126.5,-144 126.5,-180"/>
<text text-anchor="middle" x="96.5" y="-158.3" font-family="Times,serif" font-size="14.00">action</text>
</g>
<!-- 2&#45;&gt;3 -->
<g id="edge3" class="edge">
<title>2&#45;&gt;3</title>
<path fill="none" stroke="black" d="M113.06,-215.7C110.61,-207.9 107.66,-198.51 104.93,-189.83"/>
<polygon fill="black" stroke="black" points="108.21,-188.59 101.88,-180.1 101.54,-190.69 108.21,-188.59"/>
</g>
<!-- 4 -->
<g id="node5" class="node">
<title>4</title>
<polygon fill="none" stroke="black" points="206,-108 45,-108 45,-72 206,-72 206,-108"/>
<text text-anchor="middle" x="125.5" y="-86.3" font-family="Times,serif" font-size="14.00">after action analysis</text>
</g>
<!-- 3&#45;&gt;4 -->
<g id="edge4" class="edge">
<title>3&#45;&gt;4</title>
<path fill="none" stroke="black" d="M103.67,-143.7C106.93,-135.81 110.87,-126.3 114.5,-117.55"/>
<polygon fill="black" stroke="black" points="117.82,-118.68 118.41,-108.1 111.35,-116 117.82,-118.68"/>
</g>
<!-- 4&#45;&gt;1 -->
<g id="edge6" class="edge">
<title>4&#45;&gt;1</title>
<path fill="none" stroke="black" d="M111.9,-71.7C105.38,-63.39 97.43,-53.28 90.25,-44.14"/>
<polygon fill="black" stroke="black" points="92.87,-41.81 83.94,-36.1 87.37,-46.13 92.87,-41.81"/>
</g>
<!-- 5 -->
<g id="node6" class="node">
<title>5</title>
<polygon fill="none" stroke="black" points="224.5,-180 144.5,-180 144.5,-144 224.5,-144 224.5,-180"/>
<text text-anchor="middle" x="184.5" y="-158.3" font-family="Times,serif" font-size="14.00">feedback</text>
</g>
<!-- 4&#45;&gt;5 -->
<g id="edge5" class="edge">
<title>4&#45;&gt;5</title>
<path fill="none" stroke="black" d="M139.92,-108.1C146.97,-116.47 155.59,-126.69 163.36,-135.92"/>
<polygon fill="black" stroke="black" points="160.79,-138.31 169.92,-143.7 166.15,-133.79 160.79,-138.31"/>
</g>
<!-- 5&#45;&gt;2 -->
<g id="edge7" class="edge">
<title>5&#45;&gt;2</title>
<path fill="none" stroke="black" d="M168.37,-180.1C160.41,-188.55 150.65,-198.9 141.88,-208.2"/>
<polygon fill="black" stroke="black" points="139.13,-206.02 134.81,-215.7 144.22,-210.82 139.13,-206.02"/>
</g>
</g>
</svg>
